HIERARCHY
ROOT Hips
{
  OFFSET 0.0273292 -0.436096 0.279869
  CHANNELS 6 Xposition Yposition Zposition Zrotation Xrotation Yrotation
  JOINT LHipJoint
  {
    OFFSET 0 0 0
    CHANNELS 6 Xposition Yposition Zposition Zrotation Xrotation Yrotation
    JOINT LeftUpLeg
    {
      OFFSET 1.36306 -1.79463 0
      CHANNELS 6 Xposition Yposition Zposition Zrotation Xrotation Yrotation
      JOINT LeftLeg
      {
        OFFSET 2.44807 -6.72613 0.000295034
        CHANNELS 6 Xposition Yposition Zposition Zrotation Xrotation Yrotation
        JOINT LeftFoot
        {
          OFFSET 2.5622 -7.03959 3.59965e-05
          CHANNELS 6 Xposition Yposition Zposition Zrotation Xrotation Yrotation
          JOINT LeftToeBase
          {
            OFFSET 0.15764 -0.43311 2.32255
            CHANNELS 6 Xposition Yposition Zposition Zrotation Xrotation Yrotation
            End Site
            {
              OFFSET 0 0 0
            }
          }
        }
      }
    }
  }
  JOINT RHipJoint
  {
    OFFSET 0 0 0
    CHANNELS 6 Xposition Yposition Zposition Zrotation Xrotation Yrotation
    JOINT RightUpLeg
    {
      OFFSET -1.30552 -1.79463 0
      CHANNELS 6 Xposition Yposition Zposition Zrotation Xrotation Yrotation
      JOINT RightLeg
      {
        OFFSET -2.54234 -6.98562 -0.000396375
        CHANNELS 6 Xposition Yposition Zposition Zrotation Xrotation Yrotation
        JOINT RightFoot
        {
          OFFSET -2.56826 -7.05623 -4.47982e-05
          CHANNELS 6 Xposition Yposition Zposition Zrotation Xrotation Yrotation
          JOINT RightToeBase
          {
            OFFSET -0.16473 -0.45259 2.36315
            CHANNELS 6 Xposition Yposition Zposition Zrotation Xrotation Yrotation
            End Site
            {
              OFFSET 0 0 0
            }
          }
        }
      }
    }
  }
  JOINT LowerBack
  {
    OFFSET 0 0 0
    CHANNELS 6 Xposition Yposition Zposition Zrotation Xrotation Yrotation
    JOINT Spine
    {
      OFFSET 0.0282699 2.03559 0
      CHANNELS 6 Xposition Yposition Zposition Zrotation Xrotation Yrotation
      JOINT Spine1
      {
        OFFSET 0.05672 2.04885 -0.04275
        CHANNELS 6 Xposition Yposition Zposition Zrotation Xrotation Yrotation
        JOINT Neck
        {
          OFFSET 0 0 0
          CHANNELS 6 Xposition Yposition Zposition Zrotation Xrotation Yrotation
          JOINT Neck1
          {
            OFFSET -0.05417 1.74624 0.17202
            CHANNELS 6 Xposition Yposition Zposition Zrotation Xrotation Yrotation
            JOINT Head
            {
              OFFSET 0.10407 1.76136 -0.12397
              CHANNELS 6 Xposition Yposition Zposition Zrotation Xrotation Yrotation
              End Site
              {
                OFFSET 0 0 0
              }
            }
          }
        }
        JOINT LeftShoulder
        {
          OFFSET 0 0 0
          CHANNELS 6 Xposition Yposition Zposition Zrotation Xrotation Yrotation
          JOINT LeftArm
          {
            OFFSET 3.36241 1.20089 -0.311211
            CHANNELS 6 Xposition Yposition Zposition Zrotation Xrotation Yrotation
            JOINT LeftForeArm
            {
              OFFSET 4.983 0.000197398 0.000166057
              CHANNELS 6 Xposition Yposition Zposition Zrotation Xrotation Yrotation
              JOINT LeftHand
              {
                OFFSET 3.48356 0 1.87849e-05
                CHANNELS 6 Xposition Yposition Zposition Zrotation Xrotation Yrotation
                JOINT LeftFingerBase
                {
                  OFFSET 0 0 0
                  CHANNELS 6 Xposition Yposition Zposition Zrotation Xrotation Yrotation
                  JOINT LeftHandIndex1
                  {
                    OFFSET 0.71526 0 0
                    CHANNELS 6 Xposition Yposition Zposition Zrotation Xrotation Yrotation
                    End Site
                    {
                      OFFSET 0 0 0
                    }
                  }
                }
                JOINT LThumb
                {
                  OFFSET 0 0 0
                  CHANNELS 6 Xposition Yposition Zposition Zrotation Xrotation Yrotation
                  End Site
                  {
                    OFFSET 0 0 0
                  }
                }
              }
            }
          }
        }
        JOINT RightShoulder
        {
          OFFSET 0 0 0
          CHANNELS 6 Xposition Yposition Zposition Zrotation Xrotation Yrotation
          JOINT RightArm
          {
            OFFSET -3.1366 1.37405 -0.404651
            CHANNELS 6 Xposition Yposition Zposition Zrotation Xrotation Yrotation
            JOINT RightForeArm
            {
              OFFSET -5.2419 -5.8808e-05 -0.000165864
              CHANNELS 6 Xposition Yposition Zposition Zrotation Xrotation Yrotation
              JOINT RightHand
              {
                OFFSET -3.44417 0 -2.00002e-05
                CHANNELS 6 Xposition Yposition Zposition Zrotation Xrotation Yrotation
                JOINT RightFingerBase
                {
                  OFFSET 0 0 0
                  CHANNELS 6 Xposition Yposition Zposition Zrotation Xrotation Yrotation
                  JOINT RightHandIndex1
                  {
                    OFFSET -0.62253 0 0
                    CHANNELS 6 Xposition Yposition Zposition Zrotation Xrotation Yrotation
                    End Site
                    {
                      OFFSET 0 0 0
                    }
                  }
                }
                JOINT RThumb
                {
                  OFFSET 0 0 0
                  CHANNELS 6 Xposition Yposition Zposition Zrotation Xrotation Yrotation
                  End Site
                  {
                    OFFSET 0 0 0
                  }
                }
              }
            }
          }
        }
      }
    }
  }
}
MOTION
Frames:	5
Frame Time:	0.00833333
-0.0345144 -1.2624 0.107235 -2.87365 -11.5259 11.0332 0 0 0 3.97569e-16 -1.59028e-15 -0 1.36306 -1.79463 3.15064e-08 -6.94421 35.7069 -16.5589 2.4479 -6.72621 -9.56673e-05 -126.761 51.4869 149.036 2.5622 -7.03959 -1.0564e-06 -10.8758 -20.2099 -11.8796 0.15764 -0.43311 2.32255 -1.59028e-15 0 -1.59028e-15 0 0 0 3.97569e-16 -1.59028e-15 -0 -1.30552 -1.79463 8.43998e-08 -104.137 -78.7865 -104.53 -2.54226 -6.98565 -0.000402366 125.679 52.7926 -146.687 -2.56826 -7.05622 2.35751e-05 18.8128 -26.0055 24.8569 -0.16473 -0.45259 2.36315 6.55989e-15 -3.18055e-15 7.95139e-16 0 0 0 3.97569e-16 -1.59028e-15 -0 0.0282702 2.03559 -6.44439e-07 5.4006 7.89204 -10.0966 0.05672 2.04885 -0.04275 8.69683e-17 0 -0 0 0 0 7.45443e-17 3.97569e-16 -0 -0.05417 1.74624 0.17202 -0.593639 5.67422 1.95773 0.10407 1.76136 -0.12397 7.45443e-17 3.97569e-16 -7.95139e-16 0 0 0 7.45443e-17 3.97569e-16 -0 3.3624 1.20089 -0.31121 -82.6679 4.8001 -48.9286 4.983 0.000148081 -8.96757e-05 -4.27604 -4.94825 -81.6844 3.48356 -1.1134e-05 1.63992e-05 -0.144277 -1.19326 -13.7727 0 0 0 7.95139e-16 3.97569e-16 -3.18055e-15 0.71526 4.44089e-16 0 0 0 -3.18055e-15 0 0 0 7.95139e-16 3.97569e-16 -3.18055e-15 0 0 0 7.45443e-17 3.97569e-16 -0 -3.1366 1.37405 -0.40465 76.3045 -6.61123 -23.1992 -5.2419 0.000178194 -7.87038e-05 -0.000362501 -0.126716 1.43087 -3.44417 -9.82588e-07 -7.54262e-06 -1.59028e-15 7.95139e-16 -0.000124423 0 0 0 -1.98785e-15 0 -0 -0.62253 0 0 3.97569e-16 0 -0 0 0 0 -1.98785e-15 0 -0 
-0.0446805 -1.20843 0.0988645 -2.81346 -11.5271 10.7985 0 0 0 -0 0 3.18055e-15 1.36306 -1.79463 3.15064e-08 -5.86873 32.7622 -18.9782 2.4479 -6.72621 -9.56673e-05 -128.476 48.7694 151.084 2.5622 -7.03959 -1.0564e-06 -10.8876 -19.9243 -11.7574 0.15764 -0.43311 2.32255 1.59028e-15 3.18055e-15 -0 0 0 0 -0 0 3.18055e-15 -1.30552 -1.79463 8.43998e-08 -92.6923 -81.0949 -91.899 -2.54226 -6.98565 -0.000402366 124.354 53.7841 -145.143 -2.56826 -7.05622 2.35751e-05 18.0433 -25.7509 23.7377 -0.16473 -0.45259 2.36315 -5.36719e-15 3.18055e-15 -2.5842e-15 0 0 0 -0 0 3.18055e-15 0.0282702 2.03559 -6.44439e-07 5.25362 7.89738 -9.87586 0.05672 2.04885 -0.04275 -1.2424e-17 7.95139e-16 -3.97569e-16 0 0 0 -2.48481e-17 7.95139e-16 -3.97569e-16 -0.05417 1.74624 0.17202 -0.433798 5.674 1.57911 0.10407 1.76136 -0.12397 2.48481e-17 3.97569e-16 -0 0 0 0 -2.48481e-17 7.95139e-16 -3.97569e-16 3.3624 1.20089 -0.31121 -82.5633 4.70878 -48.3079 4.983 0.000148081 -8.96757e-05 -4.14308 -4.90541 -81.1957 3.48356 -1.1134e-05 1.63992e-05 -0.141059 -1.18048 -13.622 0 0 0 3.97569e-16 1.19271e-15 -9.54166e-15 0.71526 0 4.44089e-16 -0 -3.97569e-16 -0 0 0 0 3.97569e-16 1.19271e-15 -9.54166e-15 0 0 0 -2.48481e-17 7.95139e-16 -3.97569e-16 -3.1366 1.37405 -0.40465 76.0787 -6.54272 -22.4151 -5.2419 0.000178194 -7.87038e-05 -0.00899075 -0.0468507 1.32744 -3.44417 -9.82588e-07 -7.54262e-06 -5.56386e-05 -0.013175 0.150985 0 0 0 -5.96354e-16 3.18055e-15 -3.18055e-15 -0.62253 -4.44089e-16 -4.44089e-16 -1.78906e-15 7.95139e-16 -0 0 0 0 -5.96354e-16 3.18055e-15 -3.18055e-15 
-0.0696094 -1.07763 0.0804486 -2.66631 -11.5243 10.2217 0 0 0 7.95139e-16 0 -3.18055e-15 1.36306 -1.79463 3.15064e-08 -6.60877 26.5637 -19.249 2.4479 -6.72621 -9.56673e-05 -129.421 47.4142 152.261 2.5622 -7.03959 -1.0564e-06 -10.7305 -19.2948 -11.4912 0.15764 -0.43311 2.32255 -0 0 7.95139e-16 0 0 0 7.95139e-16 0 -3.18055e-15 -1.30552 -1.79463 8.43998e-08 -38.5784 -82.8236 -37.289 -2.54226 -6.98565 -0.000402366 121.685 56.3128 -142.152 -2.56826 -7.05622 2.35751e-05 16.363 -25.1426 21.2823 -0.16473 -0.45259 2.36315 -5.29264e-15 -1.59028e-15 -2.98177e-16 0 0 0 7.95139e-16 0 -3.18055e-15 0.0282702 2.03559 -6.44439e-07 4.89655 7.90977 -9.33965 0.05672 2.04885 -0.04275 -1.49089e-16 -7.95139e-16 1.98785e-16 0 0 0 -1.49089e-16 -3.97569e-16 3.97569e-16 -0.05417 1.74624 0.17202 -0.1212 5.67109 1.4232 0.10407 1.76136 -0.12397 -9.93923e-17 -1.19271e-15 -3.97569e-16 0 0 0 -1.49089e-16 -3.97569e-16 3.97569e-16 3.3624 1.20089 -0.31121 -82.3024 4.47519 -46.8008 4.983 0.000148081 -8.96757e-05 -3.82662 -4.72358 -79.9974 3.48356 -1.1134e-05 1.63992e-05 -0.13348 -1.14936 -13.2561 0 0 0 3.97569e-16 0 -3.18055e-15 0.71526 -4.44089e-16 0 -2.20695e-32 -3.97569e-16 -3.18055e-15 0 0 0 3.97569e-16 0 -3.18055e-15 0 0 0 -1.49089e-16 -3.97569e-16 3.97569e-16 -3.1366 1.37405 -0.40465 76.2355 -6.36958 -20.5111 -5.2419 0.000178194 -7.87038e-05 -0.0256833 -0.0139657 1.28485 -3.44417 -9.82588e-07 -7.54262e-06 4.60219e-05 -0.0451724 0.516702 0 0 0 1.98785e-16 -3.18055e-15 -3.18055e-15 -0.62253 0 0 -1.59028e-15 -7.95139e-16 -3.18055e-15 0 0 0 1.98785e-16 -3.18055e-15 -3.18055e-15 
-0.100947 -0.916611 0.0620328 -2.48209 -11.5084 9.4937 0 0 0 -3.97569e-16 4.77083e-15 -0 1.36306 -1.79463 3.15064e-08 -7.96228 19.2177 -18.6983 2.4479 -6.72621 -9.56673e-05 -129.891 46.9598 152.87 2.5622 -7.03959 -1.0564e-06 -10.5437 -18.6639 -11.2284 0.15764 -0.43311 2.32255 0 0 -2.38542e-15 0 0 0 -3.97569e-16 4.77083e-15 -0 -1.30552 -1.79463 8.43998e-08 2.15217 -77.2105 4.02947 -2.54226 -6.98565 -0.000402366 118.19 59.1154 -138.319 -2.56826 -7.05622 2.35751e-05 14.6611 -24.4724 18.8248 -0.16473 -0.45259 2.36315 -4.53478e-16 1.59028e-15 6.4605e-16 0 0 0 -3.97569e-16 4.77083e-15 -0 0.0282702 2.03559 -6.44439e-07 4.45531 7.92411 -8.67723 0.05672 2.04885 -0.04275 -9.93923e-17 0 -1.98785e-16 0 0 0 9.93923e-17 3.97569e-16 -1.98785e-16 -0.05417 1.74624 0.17202 0.252352 5.66715 1.35638 0.10407 1.76136 -0.12397 2.48481e-16 -7.95139e-16 -7.95139e-16 0 0 0 9.93923e-17 3.97569e-16 -1.98785e-16 3.3624 1.20089 -0.31121 -81.9677 4.16664 -44.9403 4.983 0.000148081 -8.96757e-05 -3.45139 -4.36063 -78.5076 3.48356 -1.1134e-05 1.63992e-05 -0.124569 -1.11078 -12.8041 0 0 0 -3.97569e-16 0 -9.54166e-15 0.71526 0 8.88178e-16 -3.97569e-16 3.97569e-16 -0 0 0 0 -3.97569e-16 0 -9.54166e-15 0 0 0 9.93923e-17 3.97569e-16 -1.98785e-16 -3.1366 1.37405 -0.40465 76.5367 -6.14457 -18.16 -5.2419 0.000178194 -7.87038e-05 -0.0457021 0.000129111 1.26659 -3.44417 -9.82588e-07 -7.54262e-06 0.000618549 -0.0846966 0.968263 0 0 0 2.5842e-15 -7.95139e-16 -0 -0.62253 0 0 -3.97569e-16 -2.38542e-15 -1.59028e-15 0 0 0 2.5842e-15 -7.95139e-16 -0 
-0.13034 -0.772029 0.053662 -2.31051 -11.4717 8.80529 0 0 0 1.98785e-16 -1.59028e-15 -0 1.36306 -1.79463 3.15064e-08 -9.0642 12.8185 -18.156 2.4479 -6.72621 -9.56673e-05 -130.027 46.9189 153.052 2.5622 -7.03959 -1.0564e-06 -10.4542 -18.3767 -11.1101 0.15764 -0.43311 2.32255 -0 0 7.95139e-16 0 0 0 1.98785e-16 -1.59028e-15 -0 -1.30552 -1.79463 8.43998e-08 12.4912 -71.0196 15.0937 -2.54226 -6.98565 -0.000402366 115.108 61.0798 -134.984 -2.56826 -7.05622 2.35751e-05 13.6907 -24.1552 17.6475 -0.16473 -0.45259 2.36315 1.58407e-15 0 -0 0 0 0 1.98785e-16 -1.59028e-15 -0 0.0282702 2.03559 -6.44439e-07 4.05595 7.93619 -8.07787 0.05672 2.04885 -0.04275 4.96962e-17 0 -0 0 0 0 3.72721e-17 7.95139e-16 -0 -0.05417 1.74624 0.17202 0.595044 5.66369 1.24501 0.10407 1.76136 -0.12397 3.47873e-16 3.97569e-16 -0 0 0 0 3.72721e-17 7.95139e-16 -0 3.3624 1.20089 -0.31121 -81.6625 3.88236 -43.2566 4.983 0.000148081 -8.96757e-05 -3.1215 -3.96858 -77.1644 3.48356 -1.1134e-05 1.63992e-05 -0.116825 -1.07581 -12.3951 0 0 0 1.98785e-16 -1.98785e-16 -0 0.71526 4.44089e-16 0 9.93923e-16 0 -3.18055e-15 0 0 0 1.98785e-16 -1.98785e-16 -0 0 0 0 3.72721e-17 7.95139e-16 -0 -3.1366 1.37405 -0.40465 76.7631 -5.93865 -16.0324 -5.2419 0.000178194 -7.87038e-05 -0.0641054 0.0236287 1.23618 -3.44417 -9.82588e-07 -7.54262e-06 0.00145038 -0.120455 1.3769 0 0 0 -1.98785e-15 2.38542e-15 -1.59028e-15 -0.62253 0 2.22045e-16 -1.98785e-16 2.38542e-15 -1.59028e-15 0 0 0 -1.98785e-15 2.38542e-15 -1.59028e-15 
